<mxfile modified="2023-03-15T22:03:43.153Z" host="Electron" agent="5.0 (Windows NT 10.0; Win64; x64) AppleWebKit/537.36 (KHTML, like Gecko) draw.io/20.3.0 Chrome/104.0.5112.114 Electron/20.1.3 Safari/537.36" etag="FtQ30g1AV9tIaYw41bMq" compressed="false" version="20.3.0" type="device">
  <diagram id="Ejtf3LYvVK-f6g9C-ugk" name="Module Management">
    <mxGraphModel dx="782" dy="517" grid="1" gridSize="10" guides="1" tooltips="1" connect="1" arrows="1" fold="1" page="1" pageScale="1" pageWidth="827" pageHeight="1169" math="0" shadow="0">
      <root>
        <mxCell id="oZGsi7SANBZzed72GmKH-0" />
        <mxCell id="oZGsi7SANBZzed72GmKH-1" parent="oZGsi7SANBZzed72GmKH-0" />
        <mxCell id="BaTy3wc9_1nbsWXVdK0K-0" value="" style="endArrow=block;endFill=0;endSize=12;html=1;strokeColor=#000000;fontSize=10;entryX=1;entryY=0.5;entryDx=0;entryDy=0;exitX=0;exitY=0.5;exitDx=0;exitDy=0;" parent="oZGsi7SANBZzed72GmKH-1" source="BaTy3wc9_1nbsWXVdK0K-15" target="BaTy3wc9_1nbsWXVdK0K-16" edge="1">
          <mxGeometry width="160" relative="1" as="geometry">
            <mxPoint x="260" y="487" as="sourcePoint" />
            <mxPoint x="260" y="517" as="targetPoint" />
          </mxGeometry>
        </mxCell>
        <mxCell id="BaTy3wc9_1nbsWXVdK0K-1" style="edgeStyle=none;rounded=0;orthogonalLoop=1;jettySize=auto;html=1;entryX=0;entryY=0.5;entryDx=0;entryDy=0;endArrow=open;endFill=0;exitX=0.5;exitY=1;exitDx=0;exitDy=0;" parent="oZGsi7SANBZzed72GmKH-1" source="BaTy3wc9_1nbsWXVdK0K-2" target="BaTy3wc9_1nbsWXVdK0K-4" edge="1">
          <mxGeometry relative="1" as="geometry">
            <Array as="points">
              <mxPoint x="280" y="485" />
            </Array>
          </mxGeometry>
        </mxCell>
        <mxCell id="BaTy3wc9_1nbsWXVdK0K-23" style="edgeStyle=none;rounded=0;orthogonalLoop=1;jettySize=auto;html=1;entryX=0;entryY=0.5;entryDx=0;entryDy=0;endArrow=open;endFill=0;" parent="oZGsi7SANBZzed72GmKH-1" source="BaTy3wc9_1nbsWXVdK0K-2" target="BaTy3wc9_1nbsWXVdK0K-19" edge="1">
          <mxGeometry relative="1" as="geometry" />
        </mxCell>
        <mxCell id="BaTy3wc9_1nbsWXVdK0K-2" value="&lt;p style=&quot;line-height: 100%&quot;&gt;&amp;lt;&amp;lt;actor&amp;gt;&amp;gt;&lt;br&gt;&lt;br&gt;&lt;b&gt;Tenant&lt;br&gt;Admin&lt;/b&gt;&lt;/p&gt;" style="text;html=1;align=center;verticalAlign=middle;dashed=0;strokeColor=#000000;strokeWidth=2;" parent="oZGsi7SANBZzed72GmKH-1" vertex="1">
          <mxGeometry x="240" y="347" width="80" height="77" as="geometry" />
        </mxCell>
        <mxCell id="BaTy3wc9_1nbsWXVdK0K-3" value="" style="fontStyle=1;align=center;verticalAlign=top;childLayout=stackLayout;horizontal=1;horizontalStack=0;resizeParent=1;resizeParentMax=0;resizeLast=0;marginBottom=0;strokeColor=#82b366;strokeWidth=2;fillColor=none;" parent="oZGsi7SANBZzed72GmKH-1" vertex="1">
          <mxGeometry x="380" y="460" width="120" height="83" as="geometry" />
        </mxCell>
        <mxCell id="BaTy3wc9_1nbsWXVdK0K-4" value="Retrieve Paged, &lt;br&gt;Sorted Filtered&lt;br&gt;SummaryItems of &lt;br&gt;Exceptions" style="html=1;align=left;spacingLeft=4;verticalAlign=middle;strokeColor=none;fillColor=none;fontStyle=1" parent="BaTy3wc9_1nbsWXVdK0K-3" vertex="1">
          <mxGeometry width="120" height="50" as="geometry" />
        </mxCell>
        <mxCell id="BaTy3wc9_1nbsWXVdK0K-5" value="" style="shape=ellipse;" parent="BaTy3wc9_1nbsWXVdK0K-4" vertex="1">
          <mxGeometry x="1" width="10" height="16" relative="1" as="geometry">
            <mxPoint x="-25" y="7" as="offset" />
          </mxGeometry>
        </mxCell>
        <mxCell id="BaTy3wc9_1nbsWXVdK0K-6" value="" style="line;strokeWidth=1;fillColor=none;align=left;verticalAlign=middle;spacingTop=-1;spacingLeft=3;spacingRight=3;rotatable=0;labelPosition=right;points=[];portConstraint=eastwest;" parent="BaTy3wc9_1nbsWXVdK0K-3" vertex="1">
          <mxGeometry y="50" width="120" height="8" as="geometry" />
        </mxCell>
        <mxCell id="BaTy3wc9_1nbsWXVdK0K-7" value="." style="html=1;align=center;spacingLeft=4;verticalAlign=top;strokeColor=none;fillColor=none;" parent="BaTy3wc9_1nbsWXVdK0K-3" vertex="1">
          <mxGeometry y="58" width="120" height="25" as="geometry" />
        </mxCell>
        <mxCell id="BaTy3wc9_1nbsWXVdK0K-9" value="" style="fontStyle=1;align=center;verticalAlign=top;childLayout=stackLayout;horizontal=1;horizontalStack=0;resizeParent=1;resizeParentMax=0;resizeLast=0;marginBottom=0;strokeColor=#82b366;strokeWidth=2;fillColor=none;" parent="oZGsi7SANBZzed72GmKH-1" vertex="1">
          <mxGeometry x="380" y="237" width="120" height="83" as="geometry" />
        </mxCell>
        <mxCell id="BaTy3wc9_1nbsWXVdK0K-10" value="Enable/Disable&lt;br&gt;Module" style="html=1;align=left;spacingLeft=4;verticalAlign=middle;strokeColor=none;fillColor=none;fontStyle=1" parent="BaTy3wc9_1nbsWXVdK0K-9" vertex="1">
          <mxGeometry width="120" height="50" as="geometry" />
        </mxCell>
        <mxCell id="BaTy3wc9_1nbsWXVdK0K-11" value="" style="shape=ellipse;" parent="BaTy3wc9_1nbsWXVdK0K-10" vertex="1">
          <mxGeometry x="1" width="10" height="16" relative="1" as="geometry">
            <mxPoint x="-25" y="7" as="offset" />
          </mxGeometry>
        </mxCell>
        <mxCell id="BaTy3wc9_1nbsWXVdK0K-12" value="" style="line;strokeWidth=1;fillColor=none;align=left;verticalAlign=middle;spacingTop=-1;spacingLeft=3;spacingRight=3;rotatable=0;labelPosition=right;points=[];portConstraint=eastwest;" parent="BaTy3wc9_1nbsWXVdK0K-9" vertex="1">
          <mxGeometry y="50" width="120" height="8" as="geometry" />
        </mxCell>
        <mxCell id="BaTy3wc9_1nbsWXVdK0K-13" value="." style="html=1;align=center;spacingLeft=4;verticalAlign=top;strokeColor=none;fillColor=none;" parent="BaTy3wc9_1nbsWXVdK0K-9" vertex="1">
          <mxGeometry y="58" width="120" height="25" as="geometry" />
        </mxCell>
        <mxCell id="BaTy3wc9_1nbsWXVdK0K-14" style="edgeStyle=none;rounded=0;orthogonalLoop=1;jettySize=auto;html=1;entryX=0;entryY=0.75;entryDx=0;entryDy=0;endArrow=open;endFill=0;" parent="oZGsi7SANBZzed72GmKH-1" source="BaTy3wc9_1nbsWXVdK0K-15" target="BaTy3wc9_1nbsWXVdK0K-10" edge="1">
          <mxGeometry relative="1" as="geometry" />
        </mxCell>
        <mxCell id="BaTy3wc9_1nbsWXVdK0K-15" value="&lt;p style=&quot;line-height: 100%&quot;&gt;&amp;lt;&amp;lt;actor&amp;gt;&amp;gt;&lt;br&gt;&lt;br&gt;&lt;b&gt;Maintenance &lt;br&gt;Specialist&lt;/b&gt;&lt;/p&gt;" style="text;html=1;align=center;verticalAlign=middle;dashed=0;strokeColor=#000000;strokeWidth=2;" parent="oZGsi7SANBZzed72GmKH-1" vertex="1">
          <mxGeometry x="240" y="237" width="80" height="77" as="geometry" />
        </mxCell>
        <mxCell id="BaTy3wc9_1nbsWXVdK0K-16" value="&lt;p style=&quot;line-height: 100%&quot;&gt;&amp;lt;&amp;lt;actor&amp;gt;&amp;gt;&lt;br&gt;&lt;br&gt;&lt;b&gt;Authenticated&lt;br&gt;User&lt;/b&gt;&lt;/p&gt;" style="text;html=1;align=center;verticalAlign=middle;dashed=0;strokeColor=#000000;strokeWidth=2;" parent="oZGsi7SANBZzed72GmKH-1" vertex="1">
          <mxGeometry x="120" y="297" width="80" height="77" as="geometry" />
        </mxCell>
        <mxCell id="BaTy3wc9_1nbsWXVdK0K-17" value="" style="endArrow=block;endFill=0;endSize=12;html=1;strokeColor=#000000;fontSize=10;entryX=1;entryY=0.5;entryDx=0;entryDy=0;exitX=0;exitY=0.5;exitDx=0;exitDy=0;" parent="oZGsi7SANBZzed72GmKH-1" source="BaTy3wc9_1nbsWXVdK0K-2" target="BaTy3wc9_1nbsWXVdK0K-16" edge="1">
          <mxGeometry width="160" relative="1" as="geometry">
            <mxPoint x="250" y="285.5" as="sourcePoint" />
            <mxPoint x="210" y="345.5" as="targetPoint" />
          </mxGeometry>
        </mxCell>
        <mxCell id="BaTy3wc9_1nbsWXVdK0K-18" value="" style="fontStyle=1;align=center;verticalAlign=top;childLayout=stackLayout;horizontal=1;horizontalStack=0;resizeParent=1;resizeParentMax=0;resizeLast=0;marginBottom=0;strokeColor=#82b366;strokeWidth=2;fillColor=none;" parent="oZGsi7SANBZzed72GmKH-1" vertex="1">
          <mxGeometry x="380" y="347" width="120" height="83" as="geometry" />
        </mxCell>
        <mxCell id="BaTy3wc9_1nbsWXVdK0K-19" value="De/Associate &lt;br&gt;Module to &lt;br&gt;Tenancy" style="html=1;align=left;spacingLeft=4;verticalAlign=middle;strokeColor=none;fillColor=none;fontStyle=1" parent="BaTy3wc9_1nbsWXVdK0K-18" vertex="1">
          <mxGeometry width="120" height="50" as="geometry" />
        </mxCell>
        <mxCell id="BaTy3wc9_1nbsWXVdK0K-20" value="" style="shape=ellipse;" parent="BaTy3wc9_1nbsWXVdK0K-19" vertex="1">
          <mxGeometry x="1" width="10" height="16" relative="1" as="geometry">
            <mxPoint x="-25" y="7" as="offset" />
          </mxGeometry>
        </mxCell>
        <mxCell id="BaTy3wc9_1nbsWXVdK0K-21" value="" style="line;strokeWidth=1;fillColor=none;align=left;verticalAlign=middle;spacingTop=-1;spacingLeft=3;spacingRight=3;rotatable=0;labelPosition=right;points=[];portConstraint=eastwest;" parent="BaTy3wc9_1nbsWXVdK0K-18" vertex="1">
          <mxGeometry y="50" width="120" height="8" as="geometry" />
        </mxCell>
        <mxCell id="BaTy3wc9_1nbsWXVdK0K-22" value="." style="html=1;align=center;spacingLeft=4;verticalAlign=top;strokeColor=none;fillColor=none;" parent="BaTy3wc9_1nbsWXVdK0K-18" vertex="1">
          <mxGeometry y="58" width="120" height="25" as="geometry" />
        </mxCell>
        <mxCell id="BaTy3wc9_1nbsWXVdK0K-25" value="" style="fontStyle=1;align=center;verticalAlign=top;childLayout=stackLayout;horizontal=1;horizontalStack=0;resizeParent=1;resizeParentMax=0;resizeLast=0;marginBottom=0;strokeColor=#82b366;strokeWidth=2;fillColor=none;" parent="oZGsi7SANBZzed72GmKH-1" vertex="1">
          <mxGeometry x="379" y="570" width="120" height="83" as="geometry" />
        </mxCell>
        <mxCell id="BaTy3wc9_1nbsWXVdK0K-26" value="View Single &lt;br&gt;Module &lt;br&gt;Description" style="html=1;align=left;spacingLeft=4;verticalAlign=middle;strokeColor=none;fillColor=none;fontStyle=1" parent="BaTy3wc9_1nbsWXVdK0K-25" vertex="1">
          <mxGeometry width="120" height="50" as="geometry" />
        </mxCell>
        <mxCell id="BaTy3wc9_1nbsWXVdK0K-27" value="" style="shape=ellipse;" parent="BaTy3wc9_1nbsWXVdK0K-26" vertex="1">
          <mxGeometry x="1" width="10" height="16" relative="1" as="geometry">
            <mxPoint x="-25" y="7" as="offset" />
          </mxGeometry>
        </mxCell>
        <mxCell id="BaTy3wc9_1nbsWXVdK0K-28" value="" style="line;strokeWidth=1;fillColor=none;align=left;verticalAlign=middle;spacingTop=-1;spacingLeft=3;spacingRight=3;rotatable=0;labelPosition=right;points=[];portConstraint=eastwest;" parent="BaTy3wc9_1nbsWXVdK0K-25" vertex="1">
          <mxGeometry y="50" width="120" height="8" as="geometry" />
        </mxCell>
        <mxCell id="BaTy3wc9_1nbsWXVdK0K-29" value="." style="html=1;align=center;spacingLeft=4;verticalAlign=top;strokeColor=none;fillColor=none;" parent="BaTy3wc9_1nbsWXVdK0K-25" vertex="1">
          <mxGeometry y="58" width="120" height="25" as="geometry" />
        </mxCell>
        <mxCell id="BaTy3wc9_1nbsWXVdK0K-30" style="edgeStyle=none;rounded=0;orthogonalLoop=1;jettySize=auto;html=1;entryX=0.5;entryY=1;entryDx=0;entryDy=0;endArrow=open;endFill=0;" parent="oZGsi7SANBZzed72GmKH-1" source="BaTy3wc9_1nbsWXVdK0K-26" target="BaTy3wc9_1nbsWXVdK0K-2" edge="1">
          <mxGeometry relative="1" as="geometry">
            <Array as="points">
              <mxPoint x="280" y="600" />
            </Array>
          </mxGeometry>
        </mxCell>
        <mxCell id="hHAZaT6kk5R92MGPBpb9-0" value="Title" parent="oZGsi7SANBZzed72GmKH-0" visible="0" />
        <mxCell id="Ah4b7YtR8JSupcsxefLh-12" value="&lt;font style=&quot;font-size: 12px&quot;&gt;&lt;i style=&quot;font-weight: normal&quot;&gt;&lt;span style=&quot;font-size: 12px&quot;&gt;Diagram: Base&amp;nbsp;&lt;/span&gt;&lt;/i&gt;&lt;span style=&quot;font-style: italic ; font-weight: 400&quot;&gt;System&lt;/span&gt;&lt;span style=&quot;font-style: italic ; font-weight: 400&quot;&gt;&amp;nbsp;&lt;/span&gt;&lt;i style=&quot;font-weight: normal&quot;&gt;&lt;span style=&quot;font-size: 12px&quot;&gt;Logical Module -&amp;nbsp;&lt;/span&gt;&lt;span style=&quot;font-size: 12px&quot;&gt;Functionality -&amp;nbsp;&lt;/span&gt;System Modules&lt;/i&gt;&lt;/font&gt;" style="text;strokeColor=none;fillColor=none;html=1;fontSize=12;fontStyle=1;verticalAlign=middle;align=left;shadow=0;glass=0;comic=0;opacity=30;fontColor=#808080;" parent="hHAZaT6kk5R92MGPBpb9-0" vertex="1">
          <mxGeometry x="120" y="655" width="520" height="20" as="geometry" />
        </mxCell>
        <mxCell id="hHAZaT6kk5R92MGPBpb9-1" value="Information" parent="oZGsi7SANBZzed72GmKH-0" visible="0" />
        <UserObject label="" tooltip="ABOUT&#xa;&#xa;Systems that are expected to be maintainable and improvable over a long duration are expected to broken down into separate Logical Modules to keep them from growing into one un-maintainable, monolithic &quot;ball of mud&quot;. &#xa;&#xa;&#xa;&#xa;The first Logical Module (the &quot;Core&quot; module deals with issues common to just about all IT systems: diagnostics, errors, sessions, identity, authorisation, commands, system and application context and status information, tenancies, media, etc.&#xa;&#xa;&#xa;&#xa;By reusing and leveraging common Core functionality and models, other modules can remain focused on a specific business problem (Schooling, Pharmacies, Food handling, etc.) while remaining easy and cost effective to develop and extend. &#xa;&#xa;&#xa;Note:&#xa;as shown more clearly in the Development View, Logical Modules are made up of a set of Assemblies." id="Ah4b7YtR8JSupcsxefLh-13">
          <mxCell style="shape=image;html=1;verticalAlign=top;verticalLabelPosition=bottom;labelBackgroundColor=#ffffff;imageAspect=0;aspect=fixed;image=https://cdn1.iconfinder.com/data/icons/hawcons/32/699014-icon-28-information-128.png;shadow=0;dashed=0;fontFamily=Helvetica;fontSize=12;fontColor=#000000;align=center;strokeColor=#000000;fillColor=#505050;dashPattern=1 1;" parent="hHAZaT6kk5R92MGPBpb9-1" vertex="1">
            <mxGeometry x="660" y="665" width="20" height="20" as="geometry" />
          </mxCell>
        </UserObject>
      </root>
    </mxGraphModel>
  </diagram>
</mxfile>
